<?xml version="1.0" standalone="no"?>
<!DOCTYPE svg PUBLIC "-//W3C//DTD SVG 20010904//EN"
 "http://www.w3.org/TR/2001/REC-SVG-20010904/DTD/svg10.dtd">
<svg version="1.0" xmlns="http://www.w3.org/2000/svg"
 width="346.000000pt" height="346.000000pt" viewBox="0 0 346.000000 346.000000"
 preserveAspectRatio="xMidYMid meet">
<metadata>
Created by potrace 1.14, written by Peter Selinger 2001-2017
</metadata>
<g transform="translate(0.000000,346.000000) scale(0.100000,-0.100000)"
fill="#000000" stroke="none">
<path d="M1771 3450 c-72 -15 -141 -40 -221 -80 -41 -21 -97 -40 -125 -44 -72
-8 -204 -77 -274 -141 -36 -34 -68 -55 -82 -55 -13 0 -43 -9 -66 -20 -41 -18
-43 -21 -43 -64 0 -33 -11 -65 -44 -128 -24 -45 -63 -139 -87 -208 l-44 -125
-3 -323 c-3 -281 -1 -326 12 -347 12 -18 16 -48 15 -112 l0 -88 -25 51 c-31
63 -89 123 -105 107 -15 -15 2 -45 36 -63 15 -8 34 -27 42 -44 16 -31 63 -215
63 -247 0 -17 7 -19 60 -19 33 0 60 1 60 3 0 1 -7 36 -15 78 -8 42 -19 172
-25 289 -6 117 -13 223 -16 235 -13 52 45 350 86 440 37 83 78 127 152 161 57
26 73 29 173 29 61 0 184 -4 275 -9 155 -9 171 -11 265 -47 99 -36 192 -82
249 -122 22 -16 30 -17 36 -7 5 7 6 20 3 28 -4 8 1 19 10 24 10 5 17 19 17 31
0 12 4 28 9 35 8 14 9 14 140 -83 40 -29 56 -22 65 30 4 19 10 35 14 35 4 0
35 -30 69 -66 70 -77 80 -104 113 -307 17 -110 19 -145 11 -235 -6 -59 -13
-170 -16 -247 -4 -77 -13 -174 -21 -215 -8 -41 -14 -76 -14 -77 0 -2 27 -3 60
-3 53 0 60 2 60 19 0 32 47 216 63 247 8 17 27 36 42 44 34 18 51 48 36 63
-16 16 -74 -43 -105 -107 l-26 -51 0 91 c0 59 4 94 13 103 9 9 12 87 12 319 0
340 -3 362 -70 512 -22 48 -35 96 -38 134 l-4 58 42 18 c72 31 70 41 -27 142
-123 127 -245 177 -540 223 l-37 6 20 45 c10 25 19 47 19 50 0 2 -24 10 -52
18 -71 20 -163 27 -217 16z"/>
<path d="M1235 2253 c-91 -19 -198 -72 -210 -102 -3 -7 0 -20 6 -27 9 -11 23
-9 77 12 101 37 192 42 281 14 53 -17 78 -21 90 -13 20 12 26 49 12 67 -23 27
-201 61 -256 49z"/>
<path d="M2140 2253 c-58 -5 -158 -34 -170 -48 -15 -19 -9 -56 12 -68 12 -8
36 -5 91 13 91 28 176 24 278 -14 49 -18 69 -22 78 -13 16 16 14 23 -11 47
-40 37 -189 94 -233 88 -5 -1 -26 -3 -45 -5z"/>
<path d="M1231 2030 c-61 -13 -127 -55 -156 -98 -26 -41 -46 -120 -26 -108 6
4 11 13 11 20 0 7 13 33 30 58 65 98 192 129 305 74 60 -30 112 -89 122 -139
7 -35 23 -45 23 -14 0 13 -15 53 -32 88 -29 56 -39 67 -88 91 -63 31 -126 40
-189 28z"/>
<path d="M2100 2027 c-80 -22 -119 -54 -151 -121 -42 -88 -38 -131 4 -46 68
138 219 183 353 105 29 -17 50 -41 73 -85 36 -67 46 -72 36 -16 -22 115 -184
199 -315 163z"/>
<path d="M1250 1982 c-59 -26 -90 -75 -90 -142 0 -86 57 -141 147 -139 26 0
42 3 36 6 -7 2 -13 11 -13 18 0 15 43 45 65 45 13 0 14 -4 4 -22 -11 -21 -11
-22 5 -9 96 79 28 252 -98 250 -23 0 -48 -3 -56 -7z m25 -62 c13 -20 -6 -50
-31 -50 -26 0 -40 20 -30 45 6 17 51 20 61 5z"/>
<path d="M2079 1967 c-86 -57 -91 -165 -12 -239 30 -29 38 -31 97 -29 33 1 37
3 26 16 -7 9 -11 17 -9 19 51 40 84 47 76 16 -7 -29 0 -25 23 13 25 41 26 111
2 156 -37 69 -137 92 -203 48z m46 -67 c0 -18 -6 -26 -23 -28 -24 -4 -38 18
-28 44 3 9 15 14 28 12 17 -2 23 -10 23 -28z"/>
<path d="M590 106 c0 -16 10 -37 26 -51 l27 -25 1084 0 1084 0 24 25 c14 13
25 31 25 40 0 14 -4 13 -26 -4 -27 -21 -30 -21 -1078 -21 -654 0 -1064 4
-1085 10 -19 5 -45 19 -58 32 l-23 21 0 -27z"/>
</g>
</svg>
